<svg width="18" height="16" viewBox="0 0 18 16" fill="none" xmlns="http://www.w3.org/2000/svg">
<path d="M8.81643 15.2766C7.44633 15.2766 0.517822 10.0385 0.517822 5.31828C0.517822 2.47932 2.47961 0.339111 5.08206 0.339111C6.49416 0.426497 7.82415 1.03268 8.81643 2.04116C9.81058 1.03534 11.1395 0.429647 12.5508 0.339111C15.1533 0.339111 17.115 2.47932 17.115 5.31828C17.115 10.0385 10.1865 15.2766 8.81643 15.2766ZM5.08206 1.99883C3.3991 1.99883 2.17754 3.39549 2.17754 5.31828C2.17754 8.72735 7.51521 13.0567 8.81643 13.6169C10.1143 13.0717 15.4553 8.77714 15.4553 5.31828C15.4553 3.39549 14.2338 1.99883 12.5508 1.99883C10.9085 1.99883 9.48032 3.74569 9.46289 3.76395L8.80896 4.5714L8.16582 3.75814C8.14093 3.72743 6.74178 1.99883 5.08206 1.99883Z" fill="#222222"/>
</svg>
